<svg xmlns="http://www.w3.org/2000/svg" viewBox="0 0 50 50">
  <path style="line-height:normal;text-indent:0;text-align:start;text-decoration-line:none;text-decoration-style:solid;text-decoration-color:#000;text-transform:none;block-progression:tb;isolation:auto;mix-blend-mode:normal" d="M25 2C12.309295 2 2 12.309295 2 25s10.309295 23 23 23 23-10.309295 23-23S37.690705 2 25 2zm0 2c11.609824 0 21 9.390176 21 21s-9.390176 21-21 21S4 36.609824 4 25 13.390176 4 25 4zm0 7a3 3 0 0 0-3 3 3 3 0 0 0 3 3 3 3 0 0 0 3-3 3 3 0 0 0-3-3zm-4 10v2h2v13h-2v2h8v-2h-2V21h-6z" font-weight="400" font-family="sans-serif" white-space="normal" overflow="visible"/>
</svg>
